<svg id="Capa_1" enable-background="new 0 0 512 512" height="512" viewBox="0 0 512 512" width="512" xmlns="http://www.w3.org/2000/svg"><path d="m391.714 151.646c32.313-32.313 42.653-78.252 31.068-119.313-2.771-9.821-10.422-17.472-20.243-20.243-41.06-11.585-87-1.245-119.313 31.068z" fill="#423e4f"/><path d="m59.572 151.646c-32.313-32.313-42.653-78.252-31.067-119.312 2.771-9.821 10.422-17.472 20.243-20.243 41.06-11.585 87-1.245 119.313 31.068z" fill="#423e4f"/><path d="m313.76 453.529c-7.651-.72-14.721-5.376-18.179-12.853-5.171-11.183-.296-24.44 10.886-29.611l38.398-17.755c20.581-9.516 35.962-27.477 42.201-49.276 10.235-35.766 35.752-64.599 70.006-79.107 11.346-4.807 24.436.497 29.241 11.841 4.805 11.345-.497 24.437-11.841 29.241-21.781 9.225-38.005 27.559-44.513 50.3-9.811 34.285-34.002 62.532-66.369 77.498l-38.398 17.755c-3.706 1.712-7.641 2.323-11.432 1.967z" fill="#4f4c5e"/><path d="m378.689 425.485c-.003-13.277-1.831-26.445-5.489-39.443-1.05-3.733-2.261-7.351-3.572-10.865-6.895 7.535-15.265 13.741-24.762 18.132l-38.398 17.755c-11.182 5.171-16.056 18.428-10.886 29.611 3.458 7.477 10.528 12.133 18.179 12.853 3.791.356 7.726-.254 11.432-1.967l38.398-17.754c5.258-2.432 10.297-5.22 15.098-8.322z" fill="#423e4f"/><path d="m344.321 394.17c-5.085-18.069-15.2-33.875-22.682-50.947-7.268-16.585-13.438-33.631-18.935-50.878h-154.122c-5.498 17.247-11.667 34.293-18.935 50.878-7.482 17.072-17.596 32.878-22.682 50.947-7.874 27.978-4.626 54.223 5.257 79.143 7.488 18.883 25.866 31.187 46.179 31.187h134.485c20.313 0 38.691-12.305 46.179-31.187 9.882-24.92 13.13-51.166 5.256-79.143z" fill="#4f4c5e"/><path d="m142.222 473.313c-9.882-24.92-13.13-51.166-5.257-79.143 5.085-18.069 15.2-33.875 22.682-50.947 7.268-16.585 13.438-33.631 18.935-50.878h-30c-5.498 17.248-11.667 34.293-18.935 50.878-7.482 17.072-17.596 32.878-22.682 50.947-7.874 27.978-4.626 54.223 5.257 79.143 7.488 18.883 25.865 31.187 46.179 31.187h30c-20.314 0-38.691-12.304-46.179-31.187z" fill="#423e4f"/><path d="m225.644 22.372c-95.602 0-173.102 77.5-173.102 173.101v10.446c0 78.438 63.586 142.024 142.024 142.024h62.156c78.438 0 142.024-63.586 142.024-142.024v-10.446c-.001-95.601-77.501-173.101-173.102-173.101z" fill="#5c576e"/><path d="m82.542 205.919v-10.446c0-90.547 69.525-164.843 158.102-172.448-4.945-.424-9.945-.654-15-.654-95.601 0-173.101 77.5-173.101 173.102v10.446c0 78.437 63.586 142.024 142.024 142.024h30c-78.439 0-142.025-63.586-142.025-142.024z" fill="#4f4c5e"/><ellipse cx="124.511" cy="240.706" fill="#ffa2ae" rx="37.316" ry="29.717"/><ellipse cx="326.776" cy="240.706" fill="#ffa2ae" rx="37.316" ry="29.717"/><path d="m162.239 170.658-26.437-4.662c-4.075-.718-7.969 2.004-8.688 6.083-.719 4.08 2.005 7.969 6.084 8.688l26.437 4.662c4.123.722 7.976-2.043 8.688-6.084.72-4.077-2.005-7.967-6.084-8.687z"/><path d="m291.616 185.431 26.437-4.662c4.079-.719 6.803-4.609 6.084-8.688s-4.605-6.803-8.688-6.083l-26.437 4.662c-4.079.719-6.803 4.609-6.084 8.688.712 4.043 4.569 6.804 8.688 6.083z"/><path d="m225.625 232.404c16.018 16.025 43.682 4.728 43.682-18.083 0-4.142-3.358-7.5-7.5-7.5s-7.5 3.358-7.5 7.5c0 5.84-4.751 10.592-10.591 10.592s-10.592-4.751-10.592-10.592c0-4.142-3.358-7.5-7.5-7.5s-7.5 3.358-7.5 7.5c0 5.84-4.751 10.592-10.591 10.592s-10.591-4.751-10.591-10.592c0-4.142-3.358-7.5-7.5-7.5s-7.5 3.358-7.5 7.5c.001 22.826 27.674 34.101 43.683 18.083z"/><path d="m146.242 189.469c-4.142 0-7.5 3.358-7.5 7.5v15.018c0 4.142 3.358 7.5 7.5 7.5s7.5-3.358 7.5-7.5v-15.018c0-4.142-3.358-7.5-7.5-7.5z"/><path d="m305.009 189.469c-4.142 0-7.5 3.358-7.5 7.5v15.018c0 4.142 3.358 7.5 7.5 7.5s7.5-3.358 7.5-7.5v-15.018c0-4.142-3.358-7.5-7.5-7.5z"/><path d="m471.525 299.106c-23.878 10.114-41.664 30.212-48.798 55.142-2.595 9.069-6.308 17.81-11.034 25.98-2.074 3.585-.85 8.173 2.736 10.247s8.174.85 10.247-2.736c5.343-9.234 9.538-19.114 12.471-29.365 5.881-20.551 20.543-37.119 40.227-45.456 15.169-6.424 22.248-23.899 15.822-39.072-6.425-15.169-23.9-22.25-39.071-15.822-36.351 15.396-63.429 45.994-74.29 83.948-4.93 17.224-16.175 31.795-31.354 40.934-5.886-15.731-14.036-28.752-21.1-45.252 46.895-25.263 78.842-74.833 78.842-131.73-.285-6.289 1.485-26.119-5.144-53.271 29.96-32.849 41.037-79.325 28.898-122.348-3.503-12.417-13.007-21.921-25.424-25.425-39.553-11.16-81.887-2.915-114.163 22.017-40.318-15.542-86.734-16.499-129.535.001-14.913-11.505-32.38-19.704-50.796-23.792-4.047-.898-8.05 1.653-8.947 5.696s1.652 8.049 5.696 8.947c13.547 3.007 26.516 8.528 38.081 16.157-39.682 19.907-73.365 55.58-89.616 101.521-21.929-28.407-29.448-66.022-19.565-101.049 2.075-7.355 7.706-12.986 15.061-15.061 9.289-2.621 18.939-4.056 28.682-4.266 4.141-.089 7.426-3.518 7.336-7.66-.091-4.228-3.628-7.443-7.66-7.336-11.01.237-21.922 1.86-32.432 4.826-12.415 3.503-21.92 13.007-25.423 25.424-12.139 43.024-1.062 89.5 28.898 122.35-3.352 13.734-5.143 28.073-5.143 42.824v10.446c0 56.897 31.947 106.467 78.843 131.73-.377.881-.746 1.732-1.108 2.56-7.385 16.85-17.704 32.998-23.032 51.925-7.76 27.574-5.959 55.031 5.505 83.938 8.653 21.822 29.516 35.922 53.149 35.922h134.483c23.633 0 44.496-14.1 53.15-35.922 4.001-10.088 6.797-19.996 8.448-29.797 7.482-4.09 29.806-10.744 52.09-34.271 2.848-3.007 2.72-7.754-.288-10.603-3.007-2.849-7.754-2.719-10.603.288-18.027 19.034-37.23 25.993-39.482 27.266.292-10.736-.931-21.424-3.246-31.325 20.074-10.905 34.989-29.418 41.32-51.537 9.608-33.576 33.562-60.644 65.72-74.263 12.054-5.106 24.456 6.952 19.499 19.194-1.484 3.665-4.307 6.534-7.95 8.076zm-165.174-265.203c27.523-18.2 61.87-23.688 94.13-14.586 7.356 2.076 12.986 7.705 15.061 15.061 9.883 35.027 2.364 72.641-19.567 101.05-15.448-43.689-47.801-80.551-89.624-101.525zm-246.324 172.021v-10.446c0-90.798 73.809-165.599 165.599-165.599 91.315 0 165.599 74.291 165.599 165.599v10.446c0 71.668-56.428 130.648-127.435 134.335-5.584.287-3.604.168-69.241.187-73.85 0-134.522-60.024-134.522-134.522zm272.046 264.625c-6.372 16.068-21.762 26.451-39.206 26.451h-10.425c1.718-44.819 19.457-53.179 19.457-103.337 0-4.142-3.358-7.5-7.5-7.5s-7.5 3.358-7.5 7.5c0 47.157-17.756 55.186-19.468 103.337h-34.306v-103.336c0-4.142-3.358-7.5-7.5-7.5s-7.5 3.358-7.5 7.5v103.336h-34.305c-1.709-48.066-19.467-56.188-19.467-103.337 0-4.142-3.358-7.5-7.5-7.5s-7.5 3.358-7.5 7.5c0 50.265 17.734 58.419 19.456 103.337h-10.425c-17.445 0-32.834-10.383-39.206-26.452-10.206-25.736-11.845-50.055-5.009-74.345 4.966-17.647 14.842-32.568 23.242-52.067 18.629 7.728 37.909 11.309 57.137 11.309 70.065-.002 63.021.021 66.333-.061 18.369-.497 36.132-4.267 52.959-11.248.308.715.611 1.413.911 2.099 13.185 30.086 41.038 64.51 17.322 124.314z"/></svg>