<svg id="Filled" height="512" viewBox="0 0 512 512" width="512" xmlns="http://www.w3.org/2000/svg"><path d="m40 72h448v416h-448z" fill="#c3c6c7"/><path d="m24 56h432v400h-432z" fill="#e9eef2"/><path d="m24 56h432v96h-432z" fill="#eb423f"/><circle cx="240" cy="304" fill="#f7cc38" r="104"/><path d="m136 304a104 104 0 0 1 104-104v104z" fill="#f89f00"/><path d="m344 304a104 104 0 0 0 -104-104v104z" fill="#eb423f"/><circle cx="240" cy="304" fill="#dcdee0" r="72"/><path d="m264 316.8c0 10.6-10.745 19.2-24 19.2s-24-8.6-24-19.2 24-44.8 24-44.8 24 34.2 24 44.8z" fill="#eb423f"/><path d="m488 64h-24v-8a8 8 0 0 0 -8-8h-56v-8a24 24 0 0 0 -48 0v8h-16v-8a24 24 0 0 0 -48 0v8h-96v-8a24 24 0 0 0 -48 0v8h-16v-8a24 24 0 0 0 -48 0v8h-56a8 8 0 0 0 -8 8v400a8 8 0 0 0 8 8h8v24a8 8 0 0 0 8 8h448a8 8 0 0 0 8-8v-416a8 8 0 0 0 -8-8zm-456 384v-288h416v288zm336-408a8 8 0 0 1 16 0v8h-16zm-64 0a8 8 0 0 1 16 0v8h-16zm-144 0a8 8 0 0 1 16 0v8h-16zm-64 0a8 8 0 0 1 16 0v8h-16zm-16 24v8a24.028 24.028 0 0 0 24 24 8 8 0 0 0 0-16 8.009 8.009 0 0 1 -8-8v-8h48v8a24.028 24.028 0 0 0 24 24 8 8 0 0 0 0-16 8.009 8.009 0 0 1 -8-8v-8h128v8a24.028 24.028 0 0 0 24 24 8 8 0 0 0 0-16 8.009 8.009 0 0 1 -8-8v-8h48v8a24.028 24.028 0 0 0 24 24 8 8 0 0 0 0-16 8.009 8.009 0 0 1 -8-8v-8h80v80h-416v-80zm400 416h-432v-16h408a8 8 0 0 0 8-8v-376h16z"/><path d="m240 416a112 112 0 1 0 -112-112 112.127 112.127 0 0 0 112 112zm0-16a96.127 96.127 0 0 1 -95.664-88h16.064a80 80 0 0 0 159.2 0h16.065a96.127 96.127 0 0 1 -95.665 88zm0-160a64 64 0 1 1 -64 64 64.072 64.072 0 0 1 64-64zm95.664 56h-16.064a80.14 80.14 0 0 0 -71.6-71.6v-16.064a96.153 96.153 0 0 1 87.664 87.664zm-103.664-87.664v16.064a80.14 80.14 0 0 0 -71.6 71.6h-16.064a96.153 96.153 0 0 1 87.664-87.664z"/><path d="m240 344c17.645 0 32-12.2 32-27.2 0-11.852-17.8-38.492-25.452-49.4a8 8 0 0 0 -13.1 0c-.251.358-6.222 8.88-12.289 18.866-11.659 19.205-13.159 26.406-13.159 30.534 0 15 14.355 27.2 32 27.2zm0-57.7c9.018 13.9 15.854 26.747 16 30.511-.01 6.066-7.333 11.188-16 11.188s-16-5.129-16-11.182c.138-3.755 6.977-16.617 16-30.517z"/></svg>