<svg id="Capa_1" enable-background="new 0 0 511.849 511.849" height="512" viewBox="0 0 511.849 511.849" width="512" xmlns="http://www.w3.org/2000/svg"><g><g><path d="m247.639 111.32-30.183-30.918c-48.048-49.218-125.948-49.218-173.996 0-48.048 49.218-48.048 129.017 0 178.235l199.444 204.304c7.191 7.366 18.849 7.366 26.04 0l199.444-204.304c48.048-49.218 48.048-129.017 0-178.235-48.048-49.218-125.948-49.218-173.996 0l-30.182 30.918c-4.576 4.687-11.995 4.687-16.571 0z" fill="#dd636e"/><g><path d="m468.389 80.401c-27.847-28.525-65.72-40.515-101.998-35.976 26.318 3.292 51.797 15.283 71.998 35.976 48.048 49.219 48.048 129.017 0 178.235l-197.465 202.277 1.98 2.028c7.191 7.366 18.849 7.366 26.04 0l199.444-204.304c48.048-49.219 48.048-129.017.001-178.236z" fill="#da4a54"/></g><g><circle cx="255.924" cy="255.977" fill="#fff" r="88.5"/><path d="m255.924 167.477c-5.112 0-10.123.441-15 1.277 41.68 7.146 73.5 43.536 73.5 87.223s-31.82 80.076-73.5 87.223c4.877.836 9.888 1.277 15 1.277 48.799 0 88.5-39.701 88.5-88.5s-39.701-88.5-88.5-88.5z" fill="#edebed"/><path d="m308.424 240.977h-34.5c-1.657 0-3-1.343-3-3v-34.5c0-3.314-2.686-6-6-6h-18c-3.314 0-6 2.686-6 6v34.5c0 1.657-1.343 3-3 3h-34.5c-3.314 0-6 2.686-6 6v18c0 3.314 2.686 6 6 6h34.5c1.657 0 3 1.343 3 3v34.5c0 3.314 2.686 6 6 6h18c3.314 0 6-2.686 6-6v-34.5c0-1.657 1.343-3 3-3h34.5c3.314 0 6-2.686 6-6v-18c0-3.314-2.686-6-6-6z" fill="#dd636e"/></g></g><path d="m170.477 231.7c-4.063-.788-8.003 1.865-8.793 5.932-1.167 6.008-1.759 12.18-1.759 18.345 0 52.935 43.065 96 96 96s96-43.065 96-96-43.065-96-96-96c-32.5 0-62.559 16.299-80.407 43.6-2.267 3.467-1.293 8.114 2.173 10.381 3.467 2.268 8.115 1.294 10.381-2.174 15.068-23.047 40.433-36.807 67.852-36.807 44.664 0 81 36.337 81 81s-36.336 81-81 81-81-36.337-81-81c0-5.207.499-10.416 1.484-15.483.79-4.067-1.866-8.004-5.931-8.794zm303.278-156.538c-24.662-25.262-57.464-39.174-92.365-39.174s-67.702 13.912-92.364 39.174l-30.183 30.919c-1.58 1.619-4.258 1.619-5.838 0l-30.183-30.919c-24.661-25.262-57.463-39.174-92.364-39.174-34.899 0-67.705 13.913-92.365 39.174-50.791 52.029-50.791 136.686 0 188.714l199.445 204.304c9.864 10.202 26.848 10.28 36.773 0l135.414-138.713c2.894-2.964 2.836-7.713-.127-10.606-2.965-2.894-7.713-2.836-10.606.128l-135.414 138.712c-4.163 4.303-11.157 4.291-15.307 0l-199.444-204.304c-45.15-46.25-45.15-121.506 0-167.757 21.815-22.346 50.806-34.652 81.631-34.652 30.826 0 59.816 12.307 81.631 34.652l30.183 30.919c7.335 7.585 19.939 7.629 27.305 0l30.183-30.919c21.814-22.346 50.805-34.652 81.631-34.652s59.816 12.307 81.631 34.652c45.15 46.251 45.15 121.507 0 167.757l-39.588 40.553c-2.894 2.964-2.836 7.713.127 10.606 2.964 2.893 7.711 2.834 10.606-.128l39.588-40.553c50.791-52.027 50.791-136.684 0-188.713zm-208.831 114.815h-18c-7.444 0-13.5 6.056-13.5 13.5v30h-30c-7.444 0-13.5 6.056-13.5 13.5v18c0 7.444 6.056 13.5 13.5 13.5h30v30c0 7.444 6.056 13.5 13.5 13.5h18c7.444 0 13.5-6.056 13.5-13.5v-30h30c7.444 0 13.5-6.056 13.5-13.5v-18c0-7.444-6.056-13.5-13.5-13.5h-30v-30c0-7.445-6.056-13.5-13.5-13.5zm42 58.5v15h-33c-5.79 0-10.5 4.71-10.5 10.5v33h-15v-33c0-5.79-4.71-10.5-10.5-10.5h-33v-15h33c5.79 0 10.5-4.71 10.5-10.5v-33h15v33c0 5.79 4.71 10.5 10.5 10.5z"/></g></svg>