<svg id="Layer_1" enable-background="new 0 0 128 128" height="512" viewBox="0 0 128 128" width="512" xmlns="http://www.w3.org/2000/svg"><g><path d="m121.461 62.763h-38.517v-9.863c0-3.563-2.107-6.796-5.367-8.234l-10.482-4.624c.358-1.249.741-2.491 1.152-3.725.034-.102.051-.209.051-.316v-3.973c0-13.337-10.851-24.188-24.188-24.188s-24.187 10.85-24.187 24.187v3.973c0 .107.017.214.051.316.411 1.234.794 2.476 1.152 3.725l-10.482 4.624c-3.26 1.438-5.367 4.671-5.367 8.234v26.201c0 3.563 2.107 6.796 5.367 8.234l10.482 4.624c-.358 1.249-.741 2.491-1.152 3.725-.034.102-.051.209-.051.316v3.973c0 13.337 10.851 24.188 24.187 24.188s24.188-10.851 24.188-24.188v-3.972c0-.107-.017-.214-.051-.316-.411-1.234-.794-2.476-1.152-3.725l10.126-4.467.194 1.486c.97 7.429 6.106 13.438 12.854 15.827v2.329h-.402c-1.442 0-2.615 1.173-2.615 2.615s1.173 2.616 2.615 2.616h.402v1.545h-.402c-1.442 0-2.615 1.173-2.615 2.615s1.173 2.616 2.615 2.616h.402v3.056c0 .552.448 1 1 1h10.907c.552 0 1-.448 1-1v-3.056h.402c1.442 0 2.615-1.173 2.615-2.616 0-1.442-1.173-2.615-2.615-2.615h-.402v-1.545h.402c1.442 0 2.615-1.173 2.615-2.616 0-1.442-1.173-2.615-2.615-2.615h-.402v-2.329c6.748-2.389 11.884-8.398 12.854-15.827l2.048-15.691h3.383c2.901 0 5.261-2.36 5.261-5.261s-2.36-5.263-5.261-5.263z" fill="#e6e7e8"/><g><g><g fill="#d4fbff"><path d="m72.245 68.286h-4.261c-2.353 0-4.261-1.908-4.261-4.261 0-2.353 1.908-4.261 4.261-4.261h9.961v-10.863c0-3.169-1.871-6.04-4.771-7.319l-11.268-4.972c-4.615 16.613-4.615 34.167 0 50.78l11.267-4.971c.299-.132.58-.291.857-.456z"/><path d="m18.316 36.61-11.267 4.971c-2.9 1.279-4.771 4.15-4.771 7.319v26.2c0 3.169 1.871 6.04 4.771 7.319l11.267 4.971c4.615-16.613 4.615-34.167 0-50.78z"/></g><path d="m40.111 119.16c-12.806 0-23.188-10.381-23.188-23.188v-3.972c6.491-19.473 6.491-40.527 0-60v-3.973c0-12.806 10.381-23.188 23.188-23.188 12.806 0 23.188 10.381 23.188 23.188v3.973c-6.491 19.473-6.491 40.527 0 60v3.973c-.001 12.806-10.382 23.187-23.188 23.187z" fill="#d4fbff"/><g><path d="m40.111 4.84c-12.806 0-23.188 10.381-23.188 23.188v3c0-12.806 10.381-23.188 23.188-23.188s23.188 10.381 23.188 23.188v-3c-.001-12.807-10.382-23.188-23.188-23.188z" fill="#fff"/></g><path d="m40.111 92.814c-6.904 0-12.5-5.596-12.5-12.5v-2.142c3.499-10.498 3.499-21.847 0-32.345v-2.142c0-6.904 5.596-12.5 12.5-12.5 6.904 0 12.5 5.596 12.5 12.5v2.142c-3.499 10.498-3.499 21.847 0 32.345v2.142c0 6.904-5.597 12.5-12.5 12.5z" fill="#6dc9f7"/></g><g><path d="m92.722 100.928c-1.895 0-3.723-.301-5.453-.836v18.105h10.907v-18.105c-1.731.535-3.559.836-5.454.836z" fill="#ffd7e5"/><path d="m117.461 68.286h-49.478c-2.353 0-4.261-1.908-4.261-4.261 0-2.353 1.908-4.261 4.261-4.261h49.478c2.353 0 4.261 1.908 4.261 4.261 0 2.353-1.908 4.261-4.261 4.261z" fill="#ffd7e5"/><path d="m113.2 68.286h-40.956l2.162 16.562c1.201 9.199 9.039 16.08 18.315 16.08 9.277 0 17.115-6.881 18.315-16.08z" fill="#fa759e"/><path d="m99.577 107.364h-13.71c-.892 0-1.615-.723-1.615-1.615 0-.892.723-1.615 1.615-1.615h13.71c.892 0 1.615.723 1.615 1.615.001.891-.723 1.615-1.615 1.615z" fill="#fa759e"/><g><path d="m99.577 114.14h-13.71c-.892 0-1.615-.723-1.615-1.615 0-.892.723-1.615 1.615-1.615h13.71c.892 0 1.615.723 1.615 1.615.001.892-.723 1.615-1.615 1.615z" fill="#fa759e"/><g fill="#3a2c60"><path d="m117.461 58.763h-12.475c-.552 0-1 .448-1 1s.448 1 1 1h12.475c1.798 0 3.261 1.463 3.261 3.261s-1.463 3.261-3.261 3.261h-49.478c-1.798 0-3.261-1.463-3.261-3.261s1.463-3.261 3.261-3.261h21.002c.552 0 1-.448 1-1s-.448-1-1-1h-10.041v-9.863c0-3.563-2.107-6.796-5.367-8.234l-10.482-4.624c.358-1.249.741-2.491 1.152-3.725.034-.102.051-.209.051-.316v-3.973c0-13.337-10.851-24.188-24.187-24.188s-24.188 10.85-24.188 24.187v3.973c0 .107.017.214.051.316.411 1.234.794 2.476 1.152 3.725l-10.482 4.625c-3.26 1.438-5.367 4.671-5.367 8.234v26.2c0 3.563 2.106 6.796 5.367 8.234l10.482 4.624c-.358 1.249-.741 2.491-1.152 3.725-.034.102-.051.209-.051.316v3.973c0 13.337 10.851 24.188 24.188 24.188s24.187-10.851 24.187-24.188v-3.972c0-.107-.017-.214-.051-.316-.411-1.234-.794-2.476-1.152-3.725l10.126-4.467.194 1.486c.97 7.429 6.106 13.438 12.854 15.827v2.329h-.401c-1.442 0-2.616 1.173-2.616 2.615s1.173 2.616 2.616 2.616h.401v1.545h-.401c-1.442 0-2.616 1.173-2.616 2.616 0 1.442 1.173 2.615 2.616 2.615h.401v3.057c0 .552.448 1 1 1h10.907c.552 0 1-.448 1-1v-3.057h.402c1.442 0 2.616-1.173 2.616-2.615s-1.173-2.616-2.616-2.616h-.402v-1.545h.402c1.442 0 2.616-1.173 2.616-2.616 0-1.442-1.173-2.615-2.616-2.615h-.402v-2.329c6.748-2.389 11.884-8.398 12.854-15.827l2.048-15.691h3.383c2.901 0 5.261-2.36 5.261-5.261s-2.36-5.263-5.261-5.263zm-110.009 22.741c-2.536-1.119-4.174-3.633-4.174-6.404v-26.2c0-2.771 1.639-5.286 4.174-6.404l10.195-4.498c4.126 15.668 4.126 32.336 0 48.004zm54.846 14.469c0 12.234-9.953 22.188-22.188 22.188s-22.188-9.953-22.188-22.188v-3.811c6.448-19.457 6.448-40.866 0-60.323v-3.811c0-12.234 9.953-22.188 22.188-22.188s22.188 9.953 22.188 22.188v3.811c-6.448 19.458-6.448 40.866 0 60.323zm10.471-14.469-10.195 4.498c-4.125-15.668-4.125-32.336 0-48.004l10.195 4.498c2.536 1.119 4.175 3.632 4.175 6.404v9.863h-8.961c-2.901 0-5.261 2.36-5.261 5.261s2.36 5.261 5.261 5.261h3.383l1.583 12.126c-.06.03-.117.065-.18.093zm24.406 35.693h-8.907v-2.057h8.907zm3.018-4.672c0 .339-.276.615-.616.615h-13.71c-.339 0-.616-.276-.616-.615s.276-.616.616-.616h13.71c.339 0 .616.277.616.616zm-3.018-2.616h-8.907v-1.545h8.907zm3.018-4.161c0 .339-.276.616-.616.616h-13.71c-.339 0-.616-.276-.616-.616s.276-.615.616-.615h13.71c.339 0 .616.276.616.615zm-3.018-2.615h-8.907v-1.744c1.437.34 2.924.539 4.454.539 1.529 0 3.016-.199 4.453-.539zm12.871-18.415c-1.132 8.671-8.579 15.209-17.324 15.209s-16.192-6.538-17.324-15.209l-2.015-15.433h38.677z"/><path d="m92.722 60.763h8.471c.552 0 1-.448 1-1s-.448-1-1-1h-8.471c-.552 0-1 .448-1 1s.448 1 1 1z"/></g></g></g></g></g></svg>