<?xml version="1.0" encoding="utf-8"?>
<!-- Generator: Adobe Illustrator 22.0.0, SVG Export Plug-In . SVG Version: 6.00 Build 0)  -->
<svg xmlns="http://www.w3.org/2000/svg" xmlns:xlink="http://www.w3.org/1999/xlink" version="1.1" id="Layer_2" x="0px" y="0px" viewBox="0 0 256 256" style="enable-background:new 0 0 256 256;" xml:space="preserve" width="512" height="512">
<style type="text/css">
	.st0{fill:#3A312A;}
	.st1{fill:#D7E057;}
	.st2{fill:#FCE8CB;}
	.st3{fill:#F16C7A;}
	.st4{fill:#87796F;}
	.st5{fill:#8AC6DD;}
	.st6{fill:#D34E5C;}
	.st7{fill:#6CA8BF;}
	.st8{fill-rule:evenodd;clip-rule:evenodd;fill:#FCE8CB;}
	.st9{fill:#695B51;}
	.st10{fill:#B9C239;}
	.st11{fill:#DECAAD;}
	.st12{fill:#FCE8CB;stroke:#3A312A;stroke-width:3;stroke-linecap:round;stroke-linejoin:round;stroke-miterlimit:10;}
	.st13{fill:#F5978A;}
</style>
<g>
	<g>
		<g>
			<path class="st1" d="M47.485,26.198c-0.974,11.564-13.025,13.389-13.025,13.389c10.347,0.487,12.925,14.059,12.925,14.059     c0.221-9.677,13.321-14.202,13.321-14.202C50.893,38.857,47.485,26.198,47.485,26.198z"/>
		</g>
	</g>
	<g>
		<g>
			<path class="st0" d="M60.797,37.947c-8.604-0.514-11.832-12.024-11.863-12.14c-0.19-0.702-0.844-1.161-1.584-1.102     c-0.725,0.066-1.298,0.642-1.359,1.367c-0.859,10.215-11.312,11.963-11.754,12.032c-0.763,0.115-1.313,0.79-1.273,1.56     c0.04,0.77,0.657,1.384,1.428,1.421c9.027,0.425,11.498,12.718,11.521,12.842c0.138,0.711,0.76,1.217,1.473,1.217     c0.042,0,0.084-0.002,0.126-0.005c0.765-0.064,1.357-0.693,1.375-1.459c0.193-8.508,12.191-12.777,12.312-12.819     c0.676-0.235,1.092-0.914,0.994-1.622C62.094,38.531,61.511,37.99,60.797,37.947z M47.23,48.292     c-1.356-3.13-3.709-6.907-7.587-8.876c2.932-1.405,6.409-3.913,8.202-8.273c1.551,3.071,4.199,6.88,8.334,8.722     C53.172,41.506,49.257,44.271,47.23,48.292z"/>
		</g>
	</g>
	<g>
		<g>
			<path class="st1" d="M25.786,43.179c-0.689,8.179-9.212,9.471-9.212,9.471c7.318,0.344,9.142,9.944,9.142,9.944     c0.156-6.845,9.422-10.045,9.422-10.045C28.197,52.133,25.786,43.179,25.786,43.179z"/>
		</g>
	</g>
	<g>
		<g>
			<path class="st0" d="M35.229,51.05c-5.767-0.345-7.973-8.185-7.995-8.264c-0.189-0.702-0.867-1.163-1.581-1.102     c-0.726,0.065-1.3,0.643-1.361,1.368c-0.578,6.87-7.646,8.066-7.941,8.113c-0.763,0.115-1.313,0.79-1.273,1.561     c0.04,0.77,0.657,1.384,1.428,1.421c6.035,0.284,7.723,8.644,7.738,8.726c0.136,0.713,0.759,1.22,1.473,1.22     c0.041,0,0.083-0.001,0.124-0.005c0.766-0.063,1.359-0.694,1.377-1.461c0.13-5.709,8.332-8.634,8.412-8.662     c0.677-0.234,1.094-0.913,0.997-1.622C36.527,51.635,35.942,51.093,35.229,51.05z M25.644,57.845     c-0.924-1.886-2.34-3.947-4.447-5.28c1.855-1.041,3.697-2.629,4.87-4.916c1.058,1.873,2.654,3.955,4.941,5.224     C29.158,53.974,27.02,55.613,25.644,57.845z"/>
		</g>
	</g>
	<g>
		<g>
			<path class="st1" d="M25.786,16.521c-0.689,8.179-9.212,9.471-9.212,9.471c7.318,0.345,9.142,9.944,9.142,9.944     c0.156-6.845,9.422-10.045,9.422-10.045C28.197,25.475,25.786,16.521,25.786,16.521z"/>
		</g>
	</g>
	<g>
		<g>
			<path class="st0" d="M35.229,24.393c-5.767-0.345-7.973-8.186-7.995-8.265c-0.189-0.702-0.867-1.162-1.581-1.102     c-0.726,0.065-1.3,0.643-1.361,1.368c-0.578,6.871-7.646,8.067-7.941,8.114c-0.763,0.115-1.313,0.79-1.273,1.56     c0.04,0.77,0.657,1.384,1.428,1.421c6.035,0.284,7.723,8.644,7.738,8.726c0.136,0.713,0.759,1.22,1.473,1.22     c0.041,0,0.083-0.001,0.124-0.005c0.766-0.064,1.359-0.694,1.377-1.461c0.13-5.71,8.332-8.634,8.412-8.662     c0.677-0.234,1.094-0.913,0.997-1.622C36.527,24.977,35.942,24.436,35.229,24.393z M25.644,31.188     c-0.924-1.886-2.34-3.947-4.447-5.28c1.855-1.041,3.697-2.63,4.87-4.916c1.058,1.873,2.655,3.954,4.941,5.224     C29.158,27.316,27.02,28.956,25.644,31.188z"/>
		</g>
	</g>
	<g>
		<g>
			<path class="st4" d="M211.13,16.443h-45.796c-5.361,0-9.707,4.346-9.707,9.707v0c0,5.361,4.346,9.707,9.707,9.707h45.796     c5.361,0,9.707-4.346,9.707-9.707v0C220.837,20.789,216.491,16.443,211.13,16.443z"/>
		</g>
	</g>
	<g>
		<g>
			<path class="st0" d="M211.13,14.943h-26.707c-0.828,0-1.5,0.671-1.5,1.5s0.672,1.5,1.5,1.5h26.707     c4.525,0,8.207,3.682,8.207,8.208c0,4.525-3.682,8.207-8.207,8.207h-45.796c-4.526,0-8.208-3.682-8.208-8.208     s3.682-8.208,8.208-8.208h4.04c0.828,0,1.5-0.671,1.5-1.5s-0.672-1.5-1.5-1.5h-4.04c-6.18,0-11.208,5.028-11.208,11.208     c0,6.18,5.028,11.207,11.208,11.207h45.796c6.18,0,11.207-5.028,11.207-11.208S217.31,14.943,211.13,14.943z"/>
		</g>
	</g>
	<g>
		<g>
			<path class="st2" d="M225.215,97.988c-8.912-6.306-14.211-16.545-14.211-27.462V35.858h-45.545v34.668     c0,10.917-5.298,21.156-14.211,27.462c-8.913,6.306-14.211,16.545-14.211,27.462v97.42c0,9.091,7.37,16.461,16.461,16.461h69.467     c9.091,0,16.461-7.37,16.461-16.461v-97.42C239.426,114.532,234.128,104.294,225.215,97.988z"/>
		</g>
	</g>
	<g>
		<g>
			<path class="st0" d="M226.081,96.763c-8.501-6.015-13.576-15.824-13.576-26.238V35.858c0-0.829-0.672-1.5-1.5-1.5h-45.546     c-0.828,0-1.5,0.671-1.5,1.5v34.667c0,10.414-5.075,20.223-13.577,26.238c-9.295,6.576-14.844,17.3-14.844,28.687v75.135     c0,0.829,0.672,1.5,1.5,1.5s1.5-0.671,1.5-1.5V125.45c0-10.415,5.075-20.223,13.576-26.238     c9.295-6.577,14.845-17.301,14.845-28.687V37.358h42.546v33.167c0,11.386,5.549,22.11,14.844,28.687     c8.502,6.015,13.577,15.823,13.577,26.238v97.42c0,8.249-6.712,14.961-14.961,14.961h-69.467c-8.249,0-14.96-6.711-14.96-14.961     v-6.675c0-0.829-0.672-1.5-1.5-1.5s-1.5,0.671-1.5,1.5v6.675c0,9.903,8.057,17.961,17.96,17.961h69.467     c9.903,0,17.961-8.057,17.961-17.961v-97.42C240.926,114.063,235.376,103.339,226.081,96.763z"/>
		</g>
	</g>
	<g>
		<g>
			<path class="st3" d="M216.702,139c-7.18-7.48-17.28-12.15-28.47-12.15s-21.29,4.67-28.47,12.15h-22.72v54.6h22.72     c7.18,7.49,17.28,12.16,28.47,12.16s21.29-4.67,28.47-12.16h22.72V139H216.702z"/>
		</g>
	</g>
	<g>
		<g>
			<path class="st0" d="M239.422,137.5h-22.087c-7.759-7.841-18.067-12.15-29.104-12.15s-21.345,4.309-29.103,12.15h-22.087     c-0.828,0-1.5,0.671-1.5,1.5v54.6c0,0.829,0.672,1.5,1.5,1.5h22.087c7.753,7.847,18.062,12.161,29.103,12.161     c11.039,0,21.35-4.313,29.104-12.161h22.087c0.828,0,1.5-0.671,1.5-1.5V139C240.922,138.172,240.25,137.5,239.422,137.5z      M237.922,192.1h-21.22c-0.409,0-0.8,0.167-1.083,0.462c-7.232,7.544-16.959,11.699-27.388,11.699     c-10.43,0-20.155-4.155-27.387-11.699c-0.283-0.295-0.674-0.462-1.083-0.462h-21.22v-51.6h21.22c0.408,0,0.799-0.167,1.082-0.461     c7.235-7.538,16.962-11.689,27.388-11.689s20.152,4.151,27.389,11.689c0.283,0.295,0.674,0.461,1.082,0.461h21.22V192.1z"/>
		</g>
	</g>
	<g>
		<g>
			
				<ellipse transform="matrix(0.7071 -0.7071 0.7071 0.7071 -62.4615 181.8088)" class="st1" cx="188.232" cy="166.302" rx="26.067" ry="26.067"/>
		</g>
	</g>
	<g>
		<g>
			<path class="st0" d="M188.231,138.735c-15.201,0-27.567,12.367-27.567,27.567c0,15.201,12.366,27.567,27.567,27.567     s27.567-12.367,27.567-27.567C215.799,151.102,203.433,138.735,188.231,138.735z M188.231,190.87     c-13.547,0-24.567-11.021-24.567-24.567c0-13.546,11.021-24.567,24.567-24.567s24.567,11.021,24.567,24.567     C212.799,179.849,201.778,190.87,188.231,190.87z"/>
		</g>
	</g>
	<g>
		<g>
			<path class="st1" d="M24.692,110.837v116.46c0,6.77,5.49,12.26,12.26,12.26h63.56c6.77,0,12.26-5.49,12.26-12.26v-116.46H24.692z     "/>
		</g>
	</g>
	<g>
		<g>
			<path class="st0" d="M112.771,109.337h-88.08c-0.828,0-1.5,0.671-1.5,1.5v116.46c0,7.587,6.173,13.76,13.761,13.76h63.56     c7.587,0,13.76-6.173,13.76-13.76v-116.46C114.271,110.008,113.6,109.337,112.771,109.337z M111.271,227.297     c0,5.933-4.827,10.76-10.76,10.76h-63.56c-5.934,0-10.761-4.827-10.761-10.76v-114.96h85.08V227.297z"/>
		</g>
	</g>
	<g>
		<g>
			<path class="st4" d="M112.866,86.771H24.597c-4.245,0-7.686,3.441-7.686,7.686v8.695c0,4.245,3.441,7.686,7.686,7.686h88.269     c4.245,0,7.686-3.441,7.686-7.686v-8.695C120.552,90.212,117.111,86.771,112.866,86.771z"/>
		</g>
	</g>
	<g>
		<g>
			<path class="st0" d="M112.866,85.271H24.598c-5.064,0-9.186,4.121-9.186,9.185v8.695c0,5.065,4.121,9.186,9.186,9.186h88.269     c5.064,0,9.186-4.121,9.186-9.186v-8.695C122.052,89.392,117.931,85.271,112.866,85.271z M119.052,103.152     c0,3.411-2.774,6.186-6.186,6.186H24.598c-3.411,0-6.186-2.775-6.186-6.186v-8.695c0-3.411,2.774-6.185,6.186-6.185h88.269     c3.411,0,6.186,2.775,6.186,6.185V103.152z"/>
		</g>
	</g>
	<g>
		<g>
			<rect x="24.692" y="139.054" class="st5" width="88.08" height="73.333"/>
		</g>
	</g>
	<g>
		<g>
			<path class="st0" d="M112.771,137.554H57.306c-0.828,0-1.5,0.671-1.5,1.5c0,0.829,0.672,1.5,1.5,1.5h53.966v70.333h-85.08     v-70.333h15.967c0.828,0,1.5-0.671,1.5-1.5c0-0.829-0.672-1.5-1.5-1.5H24.691c-0.828,0-1.5,0.671-1.5,1.5v73.333     c0,0.829,0.672,1.5,1.5,1.5h88.08c0.828,0,1.5-0.671,1.5-1.5v-73.333C114.271,138.225,113.6,137.554,112.771,137.554z"/>
		</g>
	</g>
	<g>
		<g>
			<path class="st2" d="M88.281,157.088c-4.2-4.201-11.011-4.201-15.211,0l-24.387,24.387c-4.201,4.201-4.201,11.011,0,15.211     c4.2,4.201,11.011,4.201,15.211,0l24.387-24.387C92.481,168.099,92.481,161.288,88.281,157.088z"/>
		</g>
	</g>
	<g>
		<g>
			<path class="st0" d="M89.342,156.027c-2.315-2.315-5.394-3.59-8.667-3.59s-6.352,1.275-8.666,3.59l-24.387,24.387     c-4.778,4.779-4.778,12.554,0,17.333c2.39,2.39,5.527,3.584,8.666,3.584s6.277-1.195,8.667-3.584l24.387-24.387     C94.12,168.581,94.12,160.806,89.342,156.027z M87.221,171.239l-24.387,24.387c-3.609,3.607-9.481,3.609-13.091,0     c-3.608-3.609-3.608-9.482,0-13.09l24.387-24.387c1.748-1.748,4.072-2.711,6.545-2.711s4.797,0.963,6.546,2.711     C90.829,161.757,90.829,167.63,87.221,171.239z"/>
		</g>
	</g>
	<g>
		<g>
			<path class="st3" d="M88.281,157.088c-4.2-4.201-11.011-4.201-15.211,0l-12.193,12.193l15.211,15.211l12.193-12.193     C92.481,168.099,92.481,161.288,88.281,157.088z"/>
		</g>
	</g>
	<g>
		<g>
			<path class="st0" d="M89.342,156.027c-2.315-2.315-5.394-3.59-8.667-3.59s-6.352,1.275-8.666,3.59l-12.193,12.193     c-0.586,0.586-0.586,1.535,0,2.121l15.211,15.211c0.293,0.293,0.677,0.44,1.061,0.44s0.768-0.146,1.061-0.44l12.194-12.193     C94.12,168.581,94.12,160.806,89.342,156.027z M87.221,171.239l-11.134,11.133l-13.09-13.09l11.133-11.133     c1.748-1.748,4.072-2.711,6.545-2.711s4.797,0.963,6.546,2.711C90.829,161.757,90.829,167.63,87.221,171.239z"/>
		</g>
	</g>
	<g>
		<g>
			<polygon class="st5" points="193.982,161.612 193.982,150.337 182.482,150.337 182.482,161.612 171.207,161.612 171.207,173.112      182.482,173.112 182.482,184.387 193.982,184.387 193.982,173.112 205.257,173.112 205.257,161.612    "/>
		</g>
	</g>
	<g>
		<g>
			<path class="st0" d="M205.257,160.112h-9.775v-9.775c0-0.829-0.672-1.5-1.5-1.5h-11.5c-0.828,0-1.5,0.671-1.5,1.5v9.775h-9.774     c-0.828,0-1.5,0.671-1.5,1.5v11.5c0,0.829,0.672,1.5,1.5,1.5h9.774v9.775c0,0.829,0.672,1.5,1.5,1.5h11.5     c0.828,0,1.5-0.671,1.5-1.5v-9.775h9.775c0.828,0,1.5-0.671,1.5-1.5v-11.5C206.757,160.783,206.085,160.112,205.257,160.112z      M203.757,171.612h-9.775c-0.828,0-1.5,0.671-1.5,1.5v9.775h-8.5v-9.775c0-0.829-0.672-1.5-1.5-1.5h-9.774v-8.5h9.774     c0.828,0,1.5-0.671,1.5-1.5v-9.775h8.5v9.775c0,0.829,0.672,1.5,1.5,1.5h9.775V171.612z"/>
		</g>
	</g>
	<g>
		<g>
			<path class="st9" d="M211.132,17.947h-15c4.52,0,8.21,3.68,8.21,8.2c0,4.53-3.69,8.21-8.21,8.21h15c4.52,0,8.21-3.68,8.21-8.21     C219.342,21.627,215.652,17.947,211.132,17.947z"/>
		</g>
	</g>
	<g>
		<g>
			<path class="st11" d="M222.922,195.097v27.77c0,8.25-6.71,14.96-14.96,14.96h15c8.25,0,14.96-6.71,14.96-14.96v-27.77H222.922z"/>
		</g>
	</g>
	<g>
		<g>
			<path class="st11" d="M224.352,99.217c-9.3-6.58-14.85-17.31-14.85-28.69v-33.17h-15v33.17c0,11.38,5.55,22.11,14.85,28.69     c8.5,6.01,13.57,15.82,13.57,26.23v12.05h15v-12.05C237.922,115.037,232.852,105.227,224.352,99.217z"/>
		</g>
	</g>
	<g>
		<g>
			<rect x="222.922" y="140.497" class="st6" width="15" height="51.6"/>
		</g>
	</g>
	<g>
		<g>
			<path class="st10" d="M96.272,213.887v13.41c0,5.93-4.83,10.76-10.76,10.76h15c5.93,0,10.76-4.83,10.76-10.76v-13.41H96.272z"/>
		</g>
	</g>
	<g>
		<g>
			<rect x="96.272" y="112.337" class="st10" width="15" height="25.22"/>
		</g>
	</g>
	<g>
		<g>
			<path class="st9" d="M112.862,88.267h-15c3.42,0,6.19,2.78,6.19,6.19v8.69c0,3.42-2.77,6.19-6.19,6.19h15     c3.42,0,6.19-2.77,6.19-6.19v-8.69C119.052,91.047,116.282,88.267,112.862,88.267z"/>
		</g>
	</g>
	<g>
		<g>
			<rect x="96.272" y="140.557" class="st7" width="15" height="70.33"/>
		</g>
	</g>
</g>
</svg>
