<svg id="Capa_1" enable-background="new 0 0 512 512" height="512" viewBox="0 0 512 512" width="512" xmlns="http://www.w3.org/2000/svg"><g><g><path clip-rule="evenodd" d="m86.538 136.253 39.882 18.368 91.271-26.078c24.263-5.357 52.354-5.357 76.617 0l91.3 26.078 39.853-18.368c7.143-38.948 15.136-78.065 9.099-126.253h-357.092c-6.066 48.188 1.956 87.305 9.07 126.253z" fill="#e0ef9b" fill-rule="evenodd"/></g><g><path clip-rule="evenodd" d="m57.399 370.787c57.03 27.099 125.257 42.887 198.614 42.887 73.329 0 141.556-15.789 198.586-42.887-5.612-21.968-12.614-44.645-21.174-68.002-7.313-19.984-11.763-38.38-14.201-55.671l-91.045 60.235 62.501-100.713-5.074-52.015-91.3-26.078c-24.263-5.357-52.353-5.357-76.617 0l-91.271 26.078-5.074 52.015 62.473 100.713-91.016-60.235c-2.466 17.291-6.916 35.687-14.229 55.671-8.559 23.357-15.56 46.034-21.173 68.002z" fill="#ffdcd5" fill-rule="evenodd"/></g><g><path clip-rule="evenodd" d="m57.059 223.473 35.744 23.641 91.016 60.235-62.473-100.713 5.074-52.015-39.882-18.368-66.838-30.784 51.617 78.093z" fill="#ffda8f" fill-rule="evenodd"/></g><g><path clip-rule="evenodd" d="m39.882 502h432.235c0-40.081-5.499-83.989-17.517-131.213-57.03 27.099-125.257 42.887-198.586 42.887-73.357 0-141.584-15.789-198.614-42.887-12.019 47.224-17.518 91.132-17.518 131.213z" fill="#e0ef9b" fill-rule="evenodd"/></g><g><path clip-rule="evenodd" d="m328.181 307.349 91.044-60.235 35.715-23.641-14.257-39.911 51.616-78.093-66.838 30.784-39.853 18.368 5.074 52.015z" fill="#ffda8f" fill-rule="evenodd"/></g><g><path d="m256.014 314.611c-5.523 0-10 4.477-10 10v16.072c0 5.523 4.477 10 10 10s10-4.477 10-10v-16.072c-.001-5.523-4.477-10-10-10z"/><path d="m499.888 98.957c-2.909-3.39-7.715-4.439-11.773-2.57l-49.351 22.735c5.992-33.441 10.958-68.543 5.719-110.365-.627-5.003-4.881-8.757-9.923-8.757h-178.546c-5.523 0-10 4.477-10 10s4.477 10 10 10h169.571c3.686 40.456-2.7 75.083-8.891 108.643l-.13.706-31.774 14.638-87.735-25.06c-.195-.056-.392-.106-.59-.149-25.716-5.678-55.213-5.679-80.93 0-.198.043-.396.094-.591.149l-87.708 25.06-31.799-14.646-.193-1.051c-6.151-33.456-12.497-67.977-8.806-108.29h74.676c5.523 0 10-4.477 10-10s-4.477-10-10-10h-83.646c-5.04 0-9.292 3.75-9.922 8.751-5.265 41.828-.283 76.923 5.7 110.37l-49.362-22.735c-4.056-1.868-8.862-.82-11.772 2.571-2.909 3.391-3.217 8.299-.753 12.026l48.86 73.922-12.576 35.203c-1.548 4.334.061 9.165 3.899 11.704l30.388 20.107c-2.648 15.693-6.834 31.273-12.747 47.43-8.518 23.283-15.655 46.233-21.417 68.789-.042.154-.083.308-.118.462-11.801 46.334-17.766 90.993-17.766 133.4 0 5.523 4.477 10 10 10h432.235c5.522 0 10-4.477 10-10 0-63.263-13.223-131.445-39.3-202.652-5.928-16.198-10.108-31.781-12.729-47.439l30.371-20.096c3.838-2.54 5.446-7.37 3.898-11.704l-12.576-35.203 48.861-73.922c2.463-3.728 2.156-8.637-.754-12.027zm-420.229 79.091-32.264-48.813 34.918 16.082c.01.005.02.009.03.014l33.434 15.398-4.383 44.937c-.213 2.184.298 4.377 1.455 6.242l38.394 61.895-53-35.07c-.102-.066-.199-.139-.304-.201l-28.825-19.073 11.622-32.532c1.057-2.965.659-6.254-1.077-8.879zm-29.663 313.952c.78-34.266 5.551-70.072 14.243-107.096 57.798 25.393 123.816 38.77 191.775 38.77 67.944 0 133.957-13.379 191.757-38.775 8.686 37.002 13.453 72.809 14.231 107.101zm374.041-185.776c7.302 19.938 13.558 39.614 18.771 58.986-56.001 25.179-120.384 38.464-186.793 38.464-66.423 0-130.811-13.283-186.81-38.459 5.211-19.369 11.464-39.047 18.761-58.993 5.256-14.363 9.236-28.329 12.073-42.32l78.263 51.786c1.685 1.115 3.605 1.661 5.515 1.661 2.533 0 5.048-.96 6.97-2.826 3.371-3.273 4.008-8.452 1.531-12.445l-60.689-97.838 4.084-41.873 84.429-24.123c22.807-4.987 48.911-4.987 71.719 0l84.457 24.123 4.084 41.872-60.717 97.837c-2.478 3.993-1.841 9.172 1.529 12.446 1.923 1.867 4.438 2.827 6.971 2.827 1.91 0 3.831-.546 5.516-1.661l78.273-51.792c2.818 13.967 6.795 27.935 12.063 42.328zm8.303-128.176c-1.735 2.625-2.133 5.915-1.074 8.878l11.621 32.532-82.11 54.332 38.402-61.881c1.157-1.865 1.669-4.059 1.456-6.244l-4.383-44.938 68.348-31.487z"/><path d="m206.013 20h.028c5.523 0 9.986-4.477 9.986-10s-4.491-10-10.014-10-10 4.477-10 10 4.477 10 10 10z"/></g></g></svg>